<mxfile host="app.diagrams.net" modified="2022-03-18T18:06:32.318Z" agent="5.0 (Macintosh; Intel Mac OS X 10_15_7) AppleWebKit/537.36 (KHTML, like Gecko) Chrome/99.0.4844.51 Safari/537.36" etag="loDPVygtRAAHG-OVVbek" version="16.6.1" type="github">
  <diagram name="Page-1" id="6133507b-19e7-1e82-6fc7-422aa6c4b21f">
    <mxGraphModel dx="1746" dy="917" grid="1" gridSize="10" guides="1" tooltips="1" connect="1" arrows="1" fold="1" page="1" pageScale="1" pageWidth="1100" pageHeight="850" background="none" math="0" shadow="0">
      <root>
        <mxCell id="0" />
        <mxCell id="1" parent="0" />
        <mxCell id="235556782a83e6d0-1" value="Customer" style="swimlane;html=1;fontStyle=1;align=center;verticalAlign=top;childLayout=stackLayout;horizontal=1;startSize=26;horizontalStack=0;resizeParent=1;resizeLast=0;collapsible=1;marginBottom=0;swimlaneFillColor=#ffffff;rounded=0;shadow=0;comic=0;labelBackgroundColor=none;strokeWidth=1;fillColor=none;fontFamily=Verdana;fontSize=12" parent="1" vertex="1">
          <mxGeometry x="40" y="420" width="435" height="204" as="geometry" />
        </mxCell>
        <mxCell id="235556782a83e6d0-2" value="&lt;b&gt;primary key customer_last_name varchar NOT NULL (customer_last)&lt;/b&gt;" style="text;html=1;strokeColor=none;fillColor=none;align=left;verticalAlign=top;spacingLeft=4;spacingRight=4;whiteSpace=wrap;overflow=hidden;rotatable=0;points=[[0,0.5],[1,0.5]];portConstraint=eastwest;" parent="235556782a83e6d0-1" vertex="1">
          <mxGeometry y="26" width="435" height="24" as="geometry" />
        </mxCell>
        <mxCell id="235556782a83e6d0-7" value="customer_first_name varchar NOT NULL (customer_first)&lt;br&gt;customer_email varchar NOT NULL (customer_email)&lt;br&gt;customer_phone varchar NOT NULL (customer_phone)&lt;br&gt;customer_address varchar NOTNULL (customer_address)" style="text;html=1;strokeColor=none;fillColor=none;align=left;verticalAlign=top;spacingLeft=4;spacingRight=4;whiteSpace=wrap;overflow=hidden;rotatable=0;points=[[0,0.5],[1,0.5]];portConstraint=eastwest;" parent="235556782a83e6d0-1" vertex="1">
          <mxGeometry y="50" width="435" height="122" as="geometry" />
        </mxCell>
        <mxCell id="78961159f06e98e8-17" value="Theater" style="swimlane;html=1;fontStyle=1;align=center;verticalAlign=top;childLayout=stackLayout;horizontal=1;startSize=26;horizontalStack=0;resizeParent=1;resizeLast=0;collapsible=1;marginBottom=0;swimlaneFillColor=#ffffff;rounded=0;shadow=0;comic=0;labelBackgroundColor=none;strokeWidth=1;fillColor=none;fontFamily=Verdana;fontSize=12" parent="1" vertex="1">
          <mxGeometry x="80" y="110" width="405" height="160" as="geometry" />
        </mxCell>
        <mxCell id="78961159f06e98e8-23" value="&lt;p style=&quot;margin: 0px 0px 0px 4px&quot;&gt;&lt;b&gt;&lt;font face=&quot;Verdana&quot;&gt;primary key theater_name varchar NOT NULL (theater)&lt;/font&gt;&lt;/b&gt;&lt;/p&gt;&lt;div&gt;&lt;b&gt;&lt;font face=&quot;Verdana&quot;&gt;&lt;br&gt;&lt;/font&gt;&lt;/b&gt;&lt;/div&gt;&lt;p style=&quot;margin: 0px 0px 0px 4px&quot;&gt;&lt;br&gt;&lt;/p&gt;" style="text;html=1;strokeColor=none;fillColor=none;align=left;verticalAlign=top;spacingLeft=4;spacingRight=4;whiteSpace=wrap;overflow=hidden;rotatable=0;points=[[0,0.5],[1,0.5]];portConstraint=eastwest;" parent="78961159f06e98e8-17" vertex="1">
          <mxGeometry y="26" width="405" height="24" as="geometry" />
        </mxCell>
        <mxCell id="78961159f06e98e8-27" value="&lt;p style=&quot;margin: 0px 0px 0px 4px&quot;&gt;&lt;font face=&quot;Verdana&quot;&gt;theater_address varchar NOT NULL (theater_address)&lt;/font&gt;&lt;/p&gt;&lt;p style=&quot;margin: 0px 0px 0px 4px&quot;&gt;&lt;font face=&quot;Verdana&quot;&gt;theater_phone varchat NOT NULL (theater_phone)&lt;/font&gt;&lt;/p&gt;&lt;p style=&quot;margin: 0px 0px 0px 4px&quot;&gt;&lt;font face=&quot;Verdana&quot;&gt;theater_email varchar NOT NULL (theater_email)&lt;/font&gt;&lt;/p&gt;" style="text;html=1;strokeColor=none;fillColor=none;align=left;verticalAlign=top;spacingLeft=4;spacingRight=4;whiteSpace=wrap;overflow=hidden;rotatable=0;points=[[0,0.5],[1,0.5]];portConstraint=eastwest;" parent="78961159f06e98e8-17" vertex="1">
          <mxGeometry y="50" width="405" height="86" as="geometry" />
        </mxCell>
        <mxCell id="78961159f06e98e8-43" value="Ticket" style="swimlane;html=1;fontStyle=1;align=center;verticalAlign=top;childLayout=stackLayout;horizontal=1;startSize=26;horizontalStack=0;resizeParent=1;resizeLast=0;collapsible=1;marginBottom=0;swimlaneFillColor=#ffffff;rounded=0;shadow=0;comic=0;labelBackgroundColor=none;strokeWidth=1;fillColor=none;fontFamily=Verdana;fontSize=12" parent="1" vertex="1">
          <mxGeometry x="640" y="380" width="390" height="190" as="geometry" />
        </mxCell>
        <mxCell id="78961159f06e98e8-44" value="&lt;b&gt;primary key ticket_id int NOT NULL (auto_increment)&lt;/b&gt;&lt;br&gt;&lt;br&gt;ticket_price double NOT NULL (ticket_price)&lt;br&gt;seat varchar NOT NULL (seat)&lt;br&gt;show_date varchar NOT NULL (date)&lt;br&gt;show_name varchar NOT NULL (show)&lt;br&gt;customer_last_name NOT NULL (customer_last)&lt;br&gt;" style="text;html=1;strokeColor=none;fillColor=none;align=left;verticalAlign=top;spacingLeft=4;spacingRight=4;whiteSpace=wrap;overflow=hidden;rotatable=0;points=[[0,0.5],[1,0.5]];portConstraint=eastwest;" parent="78961159f06e98e8-43" vertex="1">
          <mxGeometry y="26" width="390" height="134" as="geometry" />
        </mxCell>
        <mxCell id="uhGlzSMykMSogvINylBE-9" value="" style="endArrow=none;html=1;rounded=0;" edge="1" parent="78961159f06e98e8-43" target="78961159f06e98e8-44">
          <mxGeometry width="50" height="50" relative="1" as="geometry">
            <mxPoint y="140" as="sourcePoint" />
            <mxPoint x="50" y="90" as="targetPoint" />
          </mxGeometry>
        </mxCell>
        <mxCell id="uhGlzSMykMSogvINylBE-7" value="&lt;b&gt;foreign key FK_ticket_customer (customer.customer_last_name&lt;/b&gt;" style="text;html=1;resizable=0;autosize=1;align=center;verticalAlign=middle;points=[];fillColor=none;strokeColor=none;rounded=0;" vertex="1" parent="78961159f06e98e8-43">
          <mxGeometry y="160" width="390" height="20" as="geometry" />
        </mxCell>
        <mxCell id="uhGlzSMykMSogvINylBE-10" value="" style="endArrow=none;html=1;rounded=0;exitX=0.003;exitY=0.948;exitDx=0;exitDy=0;exitPerimeter=0;entryX=0.997;entryY=0.948;entryDx=0;entryDy=0;entryPerimeter=0;" edge="1" parent="78961159f06e98e8-43" source="78961159f06e98e8-44" target="78961159f06e98e8-44">
          <mxGeometry width="50" height="50" relative="1" as="geometry">
            <mxPoint x="-30" y="-60" as="sourcePoint" />
            <mxPoint x="20" y="-110" as="targetPoint" />
          </mxGeometry>
        </mxCell>
        <mxCell id="78961159f06e98e8-95" value="Show" style="swimlane;html=1;fontStyle=1;align=center;verticalAlign=top;childLayout=stackLayout;horizontal=1;startSize=26;horizontalStack=0;resizeParent=1;resizeLast=0;collapsible=1;marginBottom=0;swimlaneFillColor=#ffffff;rounded=0;shadow=0;comic=0;labelBackgroundColor=none;strokeWidth=1;fillColor=none;fontFamily=Verdana;fontSize=12" parent="1" vertex="1">
          <mxGeometry x="700" y="120" width="310" height="172" as="geometry" />
        </mxCell>
        <mxCell id="78961159f06e98e8-96" value="&lt;b&gt;primary key show_id int NOTNULL (auto_increment)&lt;/b&gt;" style="text;html=1;strokeColor=none;fillColor=none;align=left;verticalAlign=top;spacingLeft=4;spacingRight=4;whiteSpace=wrap;overflow=hidden;rotatable=0;points=[[0,0.5],[1,0.5]];portConstraint=eastwest;" parent="78961159f06e98e8-95" vertex="1">
          <mxGeometry y="26" width="310" height="26" as="geometry" />
        </mxCell>
        <mxCell id="b94bc138ca980ef-5" value="show_name varchar NOT NULL (show)&lt;br&gt;date varchar NOT NULL (date)&lt;br&gt;theater varchar NOT NULL (theater)" style="text;html=1;strokeColor=none;fillColor=none;align=left;verticalAlign=top;spacingLeft=4;spacingRight=4;whiteSpace=wrap;overflow=hidden;rotatable=0;points=[[0,0.5],[1,0.5]];portConstraint=eastwest;" parent="78961159f06e98e8-95" vertex="1">
          <mxGeometry y="52" width="310" height="78" as="geometry" />
        </mxCell>
        <mxCell id="78961159f06e98e8-103" value="" style="line;html=1;strokeWidth=1;fillColor=none;align=left;verticalAlign=middle;spacingTop=-1;spacingLeft=3;spacingRight=3;rotatable=0;labelPosition=right;points=[];portConstraint=eastwest;" parent="78961159f06e98e8-95" vertex="1">
          <mxGeometry y="130" width="310" height="2" as="geometry" />
        </mxCell>
        <mxCell id="uhGlzSMykMSogvINylBE-2" value="&lt;b&gt;foreign key FK_show_theater (theater.theatername)&lt;/b&gt;" style="text;html=1;resizable=0;autosize=1;align=center;verticalAlign=middle;points=[];fillColor=none;strokeColor=none;rounded=0;" vertex="1" parent="78961159f06e98e8-95">
          <mxGeometry y="132" width="310" height="20" as="geometry" />
        </mxCell>
        <mxCell id="uhGlzSMykMSogvINylBE-12" value="" style="edgeStyle=entityRelationEdgeStyle;fontSize=12;html=1;endArrow=ERoneToMany;rounded=0;exitX=1;exitY=0.5;exitDx=0;exitDy=0;entryX=-0.003;entryY=0.634;entryDx=0;entryDy=0;entryPerimeter=0;" edge="1" parent="1" source="235556782a83e6d0-2" target="78961159f06e98e8-44">
          <mxGeometry width="100" height="100" relative="1" as="geometry">
            <mxPoint x="510" y="590" as="sourcePoint" />
            <mxPoint x="610" y="490" as="targetPoint" />
          </mxGeometry>
        </mxCell>
        <mxCell id="uhGlzSMykMSogvINylBE-16" value="" style="edgeStyle=entityRelationEdgeStyle;fontSize=12;html=1;endArrow=ERoneToMany;rounded=0;exitX=0;exitY=1;exitDx=0;exitDy=0;" edge="1" parent="1" source="78961159f06e98e8-95">
          <mxGeometry width="100" height="100" relative="1" as="geometry">
            <mxPoint x="540" y="480" as="sourcePoint" />
            <mxPoint x="640" y="380" as="targetPoint" />
          </mxGeometry>
        </mxCell>
        <mxCell id="uhGlzSMykMSogvINylBE-17" value="" style="edgeStyle=entityRelationEdgeStyle;fontSize=12;html=1;endArrow=ERoneToMany;startArrow=ERoneToMany;rounded=0;" edge="1" parent="1">
          <mxGeometry width="100" height="100" relative="1" as="geometry">
            <mxPoint x="490" y="187" as="sourcePoint" />
            <mxPoint x="700" y="187" as="targetPoint" />
          </mxGeometry>
        </mxCell>
      </root>
    </mxGraphModel>
  </diagram>
</mxfile>
